<svg version="1" xmlns="http://www.w3.org/2000/svg" width="933.333" height="933.333" viewBox="0 0 700.000000 700.000000"><path d="M436.2 16.5c-12.5 6.3-26.5 21.2-34.1 36.2L399 59H0v582l172.1.2 172.1.3 1.9 7.3c8 31.6 43.1 53.4 81.8 50.9 12.5-.9 20.5-2.8 31-7.8 20.3-9.5 35.8-27.2 41-46.7l1.2-4.2H700v-38l-99.1-.2-99.1-.3L497 579c-2.7-12.9-5.8-27.7-6.9-32.7-2.9-13-3-12.8 3.2-15.9 8.4-4.3 18.7-11.8 25.7-18.9l6.4-6.5H700v-38h-78.1c-73.8 0-78-.1-77.5-1.8 3.1-10.4 3.6-33.5 1.1-47.6-2.7-15.4-9.5-32.5-17.5-44l-3.1-4.6H700v-38l-126.7-.2-126.7-.3-4.8-23.3-4.8-23.3 8.2-9.2c9.3-10.6 15.6-19.3 23.5-32.5l5.5-9.2H700v-38H489.3l2.9-11.8c4.9-20 6.1-32.9 5.4-56.7-.3-11.6-.9-22.9-1.2-25.3l-.6-4.2H700V59H485.1l-5.4-10.9c-8.2-16.3-15.8-27-23-32.2-5.7-4.1-11.3-4-20.5.6zm-50.6 84.7c-2.8 16.8-3.8 28.4-3.8 43.8 0 15.4 1.7 36.3 3.8 46.7l.7 3.3H116V97H386.3l-.7 4.2zm76.2-2.5c.4 1 .6 7 .6 13.3-.1 9.2-.6 13.2-2.7 20.1-5.4 17.9-16.5 39.3-28.7 55.2-4.9 6.4-6 7.2-9.2 7.5-4.1.3-4 .6-5.3-11.8-2.2-21 9.5-65.7 21.4-81.8L441 97h10c8.6 0 10.2.2 10.8 1.7zm-79.9 137c-1.3 1.5-8.5 9.1-15.9 16.8-22.1 22.9-43.8 51.6-53.5 70.7l-4 7.8H116v-98H384.3l-2.4 2.7zm29.2 83c2.8 13.5 3.9 12.3-11.1 12.3-7.1 0-13-.4-13-.9 0-1.2 21.1-21.4 21.7-20.7.3.3 1.4 4.5 2.4 9.3zm-116.5 53.5c-2.1 10.2-2.8 20.6-2.3 32.8.9 19.6 5.1 37.3 13.2 54.7l3.4 7.3H116v-98h179.3l-.7 3.2zm88.4-2.6c0 .3-1.4 2.5-3 5-4.8 6.9-10.8 20.1-13.1 28.9-1.2 4.8-2.3 12.7-2.6 19.5-.7 15.7 1.9 26.6 10.5 43.2.2.5-5.8.8-13.3.8h-13.6l-1.9-4.5c-4.5-10.4-6.2-18-6.7-29.5-.8-18.6 3.1-35.9 12.3-54.8l4.6-9.2h13.4c7.4 0 13.4.3 13.4.6zm88.7 34.9c6.6 3 16.3 12.1 20.8 19.5 5.3 8.8 8.5 19.5 8.5 28.8 0 4.4-.3 9.4-.6 11.1l-.7 3.2-13.1-.3-13.1-.3-6.2-30c-3.3-16.5-6.4-31.3-6.7-32.9-.6-2.8-.5-2.8 2.6-2.2 1.7.3 5.6 1.7 8.5 3.1zm-31.4 59.2l.7 3.3h-12.4c-14.2 0-13.7.3-18.8-10.5-3-6.3-3.3-7.9-3.3-16 0-7.8.4-9.7 2.7-14.5 3.3-6.5 9.6-14.1 15.2-18.2l4.1-2.9 5.6 27.8c3 15.3 5.8 29.3 6.2 31zM341.8 510c30 26.4 66 38.8 102.3 35.3 6.2-.7 11.6-1 11.8-.8.8.8 10.6 43.6 12.5 54.7l.7 3.8h-17.8l-17.8-.1-3.7-5.3c-7.2-10.3-20.5-18.1-33.2-19.3-14.6-1.3-31.9 7.4-41 20.6l-2.9 4.1H116v-98h220.1l5.7 5zm107.3-1.3c.7 3.6 1 3.5-11.8 5.3-10.1 1.5-22.9.2-35.8-3.5-18-5.2-17.3-5.5 16.5-5.2l30.4.2.7 3.2zM465 643c0 3.3-8.1 12-15 16.2-8.5 5.1-17.5 7.8-25.9 7.8l-6.6-.1 3-2.1c6-4.3 11.8-11.2 14.7-17.4l3-6.4h13.4c12.6 0 13.4.1 13.4 2z"/></svg>